<svg xmlns="http://www.w3.org/2000/svg" width="480" height="854" viewBox="0 0 480 854">
  <defs>
    <linearGradient id="bg3" x1="0.3" y1="0" x2="0.7" y2="1">
      <stop offset="0%" stop-color="#D8D0E0"/>
      <stop offset="35%" stop-color="#B0A0C0"/>
      <stop offset="65%" stop-color="#6A5A7A"/>
      <stop offset="100%" stop-color="#1a1520"/>
    </linearGradient>
    <radialGradient id="glow3" cx="0.4" cy="0.35" r="0.5">
      <stop offset="0%" stop-color="rgba(220,200,240,0.15)"/>
      <stop offset="100%" stop-color="rgba(0,0,0,0)"/>
    </radialGradient>
    <linearGradient id="blouse3" x1="0" y1="0" x2="1" y2="1">
      <stop offset="0%" stop-color="#B898D0"/>
      <stop offset="30%" stop-color="#90C8A0"/>
      <stop offset="60%" stop-color="#D090B8"/>
      <stop offset="100%" stop-color="#A8A0D0"/>
    </linearGradient>
  </defs>
  <rect width="480" height="854" fill="url(#bg3)"/>
  <g opacity="0.06">
    <rect x="0" y="0" width="480" height="500" fill="#D8D0D0"/>
  </g>
  <g opacity="0.15">
    <rect x="65" y="450" width="8" height="250" fill="#333"/>
    <rect x="63" y="450" width="12" height="20" rx="1" fill="#222"/>
    <rect x="63" y="470" width="12" height="20" rx="1" fill="#EEE"/>
    <rect x="63" y="490" width="12" height="20" rx="1" fill="#222"/>
    <rect x="63" y="510" width="12" height="20" rx="1" fill="#EEE"/>
    <rect x="63" y="530" width="12" height="20" rx="1" fill="#222"/>
  </g>
  <rect width="480" height="854" fill="url(#glow3)"/>
  <g transform="translate(260,400)">
    <ellipse cx="0" cy="-195" rx="25" ry="30" fill="#D8C0A8" opacity="0.8"/>
    <path d="M-28,-205 C-32,-225 -10,-238 0,-236 C10,-238 32,-225 28,-205 L30,-180 C28,-170 20,-160 15,-155 L-15,-155 C-20,-160 -28,-170 -30,-180 Z" fill="#3A3040" opacity="0.7"/>
    <path d="M-50,-140 L-60,-30 L-55,60 L-25,65 L-15,-20 L0,-10 L15,-20 L25,65 L55,60 L60,-30 L50,-140 Z" fill="url(#blouse3)" opacity="0.55"/>
    <path d="M-60,-30 C-72,-20 -78,0 -68,15" fill="url(#blouse3)" opacity="0.4"/>
    <path d="M60,-30 C72,-20 78,0 68,15" fill="url(#blouse3)" opacity="0.4"/>
    <path d="M-22,65 L-26,230 L-8,230 L-5,75 Z" fill="#B8A8D0" opacity="0.6"/>
    <path d="M22,65 L26,230 L8,230 L5,75 Z" fill="#B8A8D0" opacity="0.6"/>
    <rect x="-26" y="65" width="5" height="165" fill="#E8B030" opacity="0.45"/>
    <rect x="22" y="65" width="5" height="165" fill="#E8B030" opacity="0.45"/>
    <ellipse cx="-65" cy="30" rx="14" ry="16" fill="#D0C0E0" opacity="0.5"/>
    <path d="M-72,20 C-72,12 -58,12 -58,20" fill="none" stroke="#B8A8C8" stroke-width="1.5" opacity="0.5"/>
    <ellipse cx="10" cy="-165" rx="7" ry="5" fill="#D8C0A8" opacity="0.5"/>
    <path d="M-14,228 L-6,235 L-20,235 Z" fill="#E8E0D8" opacity="0.4"/>
    <path d="M14,228 L6,235 L20,235 Z" fill="#E8E0D8" opacity="0.4"/>
  </g>
</svg>
