<svg xmlns="http://www.w3.org/2000/svg" width="480" height="854" viewBox="0 0 480 854">
  <defs>
    <linearGradient id="sky4" x1="0" y1="0" x2="0" y2="1">
      <stop offset="0%" stop-color="#4AA0D8"/>
      <stop offset="60%" stop-color="#80C0E8"/>
      <stop offset="100%" stop-color="#C0D8E8"/>
    </linearGradient>
    <radialGradient id="glow4" cx="0.5" cy="0.25" r="0.5">
      <stop offset="0%" stop-color="rgba(200,230,255,0.15)"/>
      <stop offset="100%" stop-color="rgba(0,0,0,0)"/>
    </radialGradient>
  </defs>
  <rect width="480" height="400" fill="url(#sky4)"/>
  <rect y="400" width="480" height="454" fill="#D0C4B0"/>
  <g opacity="0.3">
    <ellipse cx="100" cy="80" rx="50" ry="20" fill="#fff"/>
    <ellipse cx="130" cy="75" rx="40" ry="18" fill="#fff"/>
    <ellipse cx="380" cy="120" rx="60" ry="22" fill="#fff"/>
    <ellipse cx="350" cy="115" rx="35" ry="16" fill="#fff"/>
  </g>
  <g opacity="0.2">
    <path d="M220,380 L230,150 C230,120 240,80 240,60 L240,40 L240,60 C240,80 250,120 250,150 L260,380 Z" fill="#C8C0B0"/>
    <path d="M200,380 L210,200 C210,160 240,140 240,140 C240,140 270,160 270,200 L280,380 Z" fill="#C8C0B0"/>
    <path d="M225,180 L225,280 L255,280 L255,180 C255,160 240,150 240,150 C240,150 225,160 225,180 Z" fill="#A0C8E0" opacity="0.4"/>
    <path d="M180,380 L195,250 L210,250 L200,380 Z" fill="#C8C0B0"/>
    <path d="M300,380 L285,250 L270,250 L280,380 Z" fill="#C8C0B0"/>
    <rect x="160" y="370" width="160" height="15" rx="2" fill="#B8B0A0"/>
  </g>
  <rect width="480" height="854" fill="url(#glow4)"/>
  <g transform="translate(270,440)">
    <ellipse cx="-10" cy="-180" rx="24" ry="29" fill="#DCC8B0" opacity="0.8"/>
    <path d="M-30,-190 C-28,-215 8,-215 10,-195" fill="#7A5A40" opacity="0.5"/>
    <path d="M-32,-175 C-38,-160 -35,-140 -30,-130 L-22,-125" fill="#B8A098" opacity="0.6"/>
    <path d="M14,-180 C20,-165 22,-145 18,-130 L10,-125" fill="#B8A098" opacity="0.6"/>
    <rect x="-22" y="-186" width="12" height="8" rx="2" fill="#3A3030" opacity="0.5"/>
    <rect x="-2" y="-186" width="12" height="8" rx="2" fill="#3A3030" opacity="0.5"/>
    <path d="M-42,-125 L-50,-40 L-45,60 L-20,65 L-12,-20 L-5,-15 L5,-20 L15,65 L42,60 L48,-40 L40,-125 Z" fill="#E0D4C0" opacity="0.7"/>
    <path d="M-10,-120 L-8,-30 L5,-30 L8,-120 Z" fill="#8AB8D0" opacity="0.35"/>
    <path d="M-20,65 L-28,180 L-8,180 L-5,75 Z" fill="#E8E0D0" opacity="0.55"/>
    <path d="M15,65 L22,140 L38,180 L18,180 L8,75 Z" fill="#E8E0D0" opacity="0.55"/>
    <rect x="-45" y="10" width="22" height="18" rx="3" fill="#F0E8E0" opacity="0.6"/>
    <path d="M40,-40 L55,10 L60,30 L55,35 L48,15 Z" fill="#E0D4C0" opacity="0.5"/>
    <ellipse cx="60" cy="35" rx="8" ry="6" fill="#DCC8B0" opacity="0.5"/>
  </g>
</svg>
