<svg xmlns="http://www.w3.org/2000/svg" width="480" height="854" viewBox="0 0 480 854">
  <defs>
    <linearGradient id="bg2" x1="0.3" y1="0" x2="0.7" y2="1">
      <stop offset="0%" stop-color="#E8DCC8"/>
      <stop offset="35%" stop-color="#D0C4A8"/>
      <stop offset="65%" stop-color="#8A7A6A"/>
      <stop offset="100%" stop-color="#1a1810"/>
    </linearGradient>
    <radialGradient id="glow2" cx="0.5" cy="0.3" r="0.55">
      <stop offset="0%" stop-color="rgba(255,240,220,0.2)"/>
      <stop offset="100%" stop-color="rgba(0,0,0,0)"/>
    </radialGradient>
  </defs>
  <rect width="480" height="854" fill="url(#bg2)"/>
  <g opacity="0.08">
    <rect x="50" y="100" width="80" height="300" rx="4" fill="none" stroke="#8A7A6A" stroke-width="2"/>
    <rect x="350" y="80" width="80" height="320" rx="4" fill="none" stroke="#8A7A6A" stroke-width="2"/>
    <path d="M130,150 C130,100 190,60 250,60 C310,60 370,100 370,150" fill="none" stroke="#9A8A7A" stroke-width="1.5"/>
    <line x1="130" y1="150" x2="130" y2="400" stroke="#9A8A7A" stroke-width="1.5"/>
    <line x1="370" y1="150" x2="370" y2="400" stroke="#9A8A7A" stroke-width="1.5"/>
  </g>
  <rect width="480" height="854" fill="url(#glow2)"/>
  <g transform="translate(240,400)">
    <ellipse cx="0" cy="-190" rx="26" ry="32" fill="#E0C8B0" opacity="0.85"/>
    <path d="M-22,-210 C-18,-235 18,-235 22,-210" fill="#B89870" opacity="0.6"/>
    <path d="M-28,-195 C-32,-180 -30,-165 -28,-155 L-20,-148" fill="#E8E0D0" opacity="0.6"/>
    <path d="M28,-195 C32,-180 30,-165 28,-155 L20,-148" fill="#E8E0D0" opacity="0.6"/>
    <ellipse cx="-10" cy="-192" rx="10" ry="7" fill="#4A4040" opacity="0.5"/>
    <ellipse cx="10" cy="-192" rx="10" ry="7" fill="#4A4040" opacity="0.5"/>
    <path d="M-55,-140 L-65,-20 L-60,120 L-30,130 L-20,0 L0,10 L20,0 L30,130 L60,120 L65,-20 L55,-140 Z" fill="#E8DCC0" opacity="0.7"/>
    <g opacity="0.15" stroke="#C0B49A" stroke-width="0.6">
      <line x1="-40" y1="-100" x2="-35" y2="-80"/><line x1="-35" y1="-80" x2="-40" y2="-60"/>
      <line x1="-30" y1="-100" x2="-25" y2="-80"/><line x1="-25" y1="-80" x2="-30" y2="-60"/>
      <line x1="30" y1="-100" x2="35" y2="-80"/><line x1="35" y1="-80" x2="30" y2="-60"/>
      <line x1="40" y1="-100" x2="45" y2="-80"/><line x1="45" y1="-80" x2="40" y2="-60"/>
    </g>
    <path d="M-65,-20 C-75,-10 -80,5 -72,15" fill="#E8DCC0" opacity="0.5"/>
    <path d="M65,-20 C75,-10 80,5 72,15" fill="#E8DCC0" opacity="0.5"/>
    <path d="M-15,-135 L-10,-20 L10,-20 L15,-135 Z" fill="#F0E8E0" opacity="0.5"/>
    <rect x="20" y="20" width="28" height="22" rx="3" fill="#3A2A1A" opacity="0.65"/>
    <rect x="22" y="22" width="12" height="10" rx="1" fill="#8A7A5A" opacity="0.5"/>
    <path d="M25,20 C25,10 45,10 45,20" fill="none" stroke="#B8A080" stroke-width="1.5" opacity="0.5"/>
    <path d="M-22,130 L-26,220 L-10,220 L-5,140 Z" fill="#7090A8" opacity="0.45"/>
    <path d="M22,130 L26,220 L10,220 L5,140 Z" fill="#7090A8" opacity="0.45"/>
    <ellipse cx="22" cy="-165" rx="8" ry="6" fill="#E0C8B0" opacity="0.5"/>
  </g>
</svg>
